<svg height="512pt" viewBox="0 -8 512.00031 512" width="512pt" xmlns="http://www.w3.org/2000/svg"><path d="m452.996094 437.050781c-1.671875 0-3.339844.09375-5 .261719-3.292969-8.664062-8.554688-16.21875-15.171875-22.21875-6.617188 6-11.875 13.554688-15.171875 22.21875-1.660156-.167969-3.328125-.261719-5.003906-.261719-26.769532 0-48.550782 21.914063-48.550782 48.851563h137.453125c0-26.9375-21.78125-48.851563-48.554687-48.851563zm0 0" fill="#27b5f7"/><path d="m109.617188 30.660156c-.464844 0-.921876.015625-1.378907.042969-1.25-2.851563-2.890625-5.492187-4.839843-7.867187-2.601563 3.171874-4.648438 6.8125-5.96875 10.792968-3.367188-1.890625-7.253907-2.96875-11.390626-2.96875-12.894531 0-23.34375 10.449219-23.34375 23.34375 0 5.703125 2.046876 10.929688 5.445313 14.984375h59.375c3.398437-4.054687 5.449219-9.28125 5.449219-14.984375 0-12.894531-10.453125-23.34375-23.347656-23.34375zm0 0" fill="#c2edff"/><path d="m490.019531 125.488281c-7.699219-4.117187-15.769531-7.234375-24.023437-9.378906-1.707032 9.070313-7.75 18.53125-19.945313 25.574219l-324.4375 187.3125c-4.398437 2.539062-9.570312 3.390625-14.554687 2.398437l-32.078125-6.414062c-3.859375-.769531-7.425781-2.617188-10.285157-5.328125l-51.789062-49.074219-2.089844 1.207031 88.914063 84.257813c2.859375 2.707031 6.425781 4.554687 10.289062 5.328125l32.074219 6.410156c4.984375.996094 10.15625.144531 14.558594-2.394531l324.433594-187.3125c27.816406-16.0625 23.644531-44.71875 8.933593-52.585938zm0 0" fill="#4281cd"/><path d="m496.5 137.953125-53.804688 31.3125c-8.089843 4.671875-18.164062 2.375-22.496093-5.128906l-4.179688-7.238281c-4.332031-7.503907-1.285156-17.375 6.808594-22.046876l29.632813-17.109374zm0 0" fill="#c2edff"/><path d="m454.644531 426.625c-11.539062-22.316406-34.90625-36.851562-60.324219-36.851562-25.414062 0-48.78125 14.535156-60.320312 36.851562-28.25.785156-51.605469 21.625-56.4375 48.828125h-50.917969c-5.769531 0-10.449219 4.679687-10.449219 10.449219 0 5.769531 4.679688 10.449218 10.449219 10.449218h60.449219c5.769531 0 10.449219-4.679687 10.449219-10.449218 0-21.175782 17.09375-38.402344 38.101562-38.402344 1.257813 0 2.589844.066406 3.957031.207031 4.699219.476563 9.132813-2.265625 10.8125-6.683593 6.90625-18.15625 24.550782-30.355469 43.910157-30.355469 19.355469 0 37 12.199219 43.90625 30.355469 1.679687 4.417968 6.117187 7.15625 10.816406 6.683593 1.363281-.140625 2.691406-.207031 3.949219-.207031 17.421875 0 32.148437 11.839844 36.671875 27.953125h-124.269531c-5.769532 0-10.449219 4.679687-10.449219 10.449219 0 5.769531 4.679687 10.449218 10.449219 10.449218h136.152343c5.769531 0 10.449219-4.679687 10.449219-10.449218 0-32.144532-25.578125-58.398438-57.355469-59.277344zm0 0"/><path d="m333.53125 475.453125h-.164062c-5.769532 0-10.449219 4.679687-10.449219 10.449219 0 5.769531 4.679687 10.449218 10.449219 10.449218h.164062c5.769531 0 10.449219-4.679687 10.449219-10.449218 0-5.769532-4.679688-10.449219-10.449219-10.449219zm0 0"/><path d="m193.371094 475.453125h-.164063c-5.769531 0-10.445312 4.679687-10.445312 10.449219 0 5.769531 4.675781 10.449218 10.445312 10.449218h.164063c5.769531 0 10.449218-4.679687 10.449218-10.449218 0-5.769532-4.675781-10.449219-10.449218-10.449219zm0 0"/><path d="m15.894531 79.433594h111.621094c3.09375 0 6.027344-1.367188 8.011719-3.734375 5.082031-6.070313 7.886718-13.773438 7.886718-21.695313 0-16.921875-12.503906-30.976562-28.753906-33.417968-8.03125-12.6875-22.078125-20.585938-37.390625-20.585938-15.511719 0-29.542969 8.023438-37.5 20.746094-1.964843-.355469-3.96875-.535156-5.976562-.535156-18.632813 0-33.792969 15.160156-33.792969 33.792968 0 7.921875 2.800781 15.625 7.886719 21.695313 1.984375 2.367187 4.917969 3.734375 8.007812 3.734375zm17.898438-38.324219c2.234375 0 4.347656.546875 6.289062 1.632813 2.71875 1.527343 5.980469 1.753906 8.886719.625 2.90625-1.128907 5.160156-3.496094 6.136719-6.457032 3.167969-9.578125 12.078125-16.011718 22.167969-16.011718 9.269531 0 17.671874 5.492187 21.394531 13.996093 1.753906 4.003907 5.832031 6.484375 10.175781 6.238281.257812-.015624.515625-.023437.777344-.023437 7.109375 0 12.894531 5.785156 12.894531 12.894531 0 1.734375-.328125 3.246094-.8125 4.535156h-99.992187c-.484376-1.289062-.8125-2.800781-.8125-4.535156 0-7.109375 5.785156-12.894531 12.894531-12.894531zm0 0"/><path d="m363.800781 32.449219h137.75c5.769531 0 10.449219-4.679688 10.449219-10.449219s-4.679688-10.449219-10.449219-10.449219h-137.75c-5.769531 0-10.449219 4.679688-10.449219 10.449219s4.679688 10.449219 10.449219 10.449219zm0 0"/><path d="m328.058594 32.449219h.121094c5.769531 0 10.449218-4.679688 10.449218-10.449219s-4.679687-10.449219-10.449218-10.449219h-.121094c-5.769532 0-10.449219 4.679688-10.449219 10.449219s4.675781 10.449219 10.449219 10.449219zm0 0"/><path d="m363.800781 64.777344h88.054688c5.769531 0 10.449219-4.679688 10.449219-10.449219s-4.679688-10.449219-10.449219-10.449219h-88.054688c-5.769531 0-10.449219 4.679688-10.449219 10.449219s4.679688 10.449219 10.449219 10.449219zm0 0"/><path d="m260.679688 64.777344h68.875c5.769531 0 10.449218-4.679688 10.449218-10.449219s-4.679687-10.449219-10.449218-10.449219h-68.875c-5.769532 0-10.449219 4.679688-10.449219 10.449219s4.679687 10.449219 10.449219 10.449219zm0 0"/><path d="m172.757812 403.292969h-96.960937c-5.769531 0-10.449219 4.675781-10.449219 10.445312 0 5.773438 4.679688 10.449219 10.449219 10.449219h96.960937c5.769532 0 10.449219-4.675781 10.449219-10.449219 0-5.769531-4.679687-10.445312-10.449219-10.445312zm0 0"/><path d="m40.054688 403.292969c-5.769532 0-10.449219 4.675781-10.449219 10.445312 0 5.773438 4.679687 10.449219 10.449219 10.449219h.121093c5.773438 0 10.449219-4.675781 10.449219-10.449219 0-5.769531-4.675781-10.445312-10.449219-10.445312zm0 0"/><path d="m74.980469 435.78125h-64.164063c-5.769531 0-10.449218 4.679688-10.449218 10.449219s4.679687 10.449219 10.449218 10.449219h64.164063c5.769531 0 10.445312-4.679688 10.445312-10.449219s-4.675781-10.449219-10.445312-10.449219zm0 0"/><path d="m28.183594 302.636719 64.363281 60.988281c4.292969 4.070312 9.628906 6.832031 15.425781 7.988281l32.074219 6.414063c2.039063.40625 4.101563.609375 6.152344.609375 5.464843 0 10.875-1.429688 15.675781-4.203125l324.4375-187.3125c16.585938-9.578125 25.949219-24.441406 25.683594-40.777344-.214844-13.039062-6.746094-24.558594-17.050782-30.070312-36.703124-19.625-80.136718-18.917969-116.179687 1.890624 0 0-112.964844 65.234376-113.542969 65.777344l-95.824218-12.886718c-2.289063-.304688-4.617188.152343-6.617188 1.308593l-37.871094 21.867188c-3.582031 2.066406-5.605468 6.050781-5.164062 10.160156.4375 4.113281 3.257812 7.574219 7.195312 8.839844l55.828125 17.910156-66.113281 38.109375-60.71875-30.183594c-3.136719-1.558594-6.84375-1.445312-9.875.308594l-40.46875 23.359375c-2.855469 1.648437-4.765625 4.550781-5.152344 7.824219-.3867185 3.277344.796875 6.542968 3.191406 8.808594-.003906 0 24.542969 23.257812 24.550782 23.269531zm399.867187-158.738281 29.632813-17.105469c.742187-.429688 1.402344-.941407 1.996094-1.507813 8.078124 1.789063 16.003906 4.617188 23.601562 8.484375l-45.808594 26.449219c-3.039062 1.753906-6.804687 1.15625-8.222656-1.304688l-4.183594-7.238281c-1.417968-2.460937-.054687-6.023437 2.984375-7.777343zm-376.398437 116.375 60.71875 30.183593c3.132812 1.554688 6.839844 1.441407 9.867187-.304687l87.414063-50.390625 19.820312 6.359375c1.0625.339844 2.136719.5 3.195313.5 4.417969 0 8.523437-2.828125 9.949219-7.261719 1.761718-5.492187-1.265626-11.378906-6.757813-13.140625l-80.074219-25.6875 14.359375-8.289062 115.757813 15.566406c5.714844.761718 10.976562-3.242188 11.746094-8.964844.421874-3.140625-.601563-6.136719-2.554688-8.332031l94.113281-54.25c9.484375-5.476563 19.59375-9.257813 29.9375-11.351563l-1.542969.890625c-13.070312 7.546875-17.839843 23.839844-10.632812 36.324219l4.179688 7.238281c4.742187 8.214844 13.507812 12.761719 22.671874 12.761719 4.761719 0 9.632813-1.230469 14.097657-3.808594l41.800781-24.132812c-2.203125 5.679687-6.976562 10.863281-13.859375 14.835937l-324.429687 187.3125c-2.203126 1.273438-4.789063 1.699219-7.285157 1.199219l-32.078125-6.410156c-1.933594-.386719-3.714844-1.308594-5.148437-2.667969l-32.496094-30.792969 17.003906-9.820312c4.996094-2.886719 6.707031-9.273438 3.824219-14.273438-2.886719-4.996094-9.277344-6.710937-14.273438-3.824218l-22.378906 12.921874-5.757812-5.453124 5.621094-3.246094c4.996093-2.882813 6.710937-9.273438 3.824218-14.273438-2.886718-4.996094-9.273437-6.707031-14.273437-3.824218l-10.992188 6.347656-8.847656-8.382813zm0 0"/><path d="m145.828125 329.964844c1.773437 0 3.570313-.453125 5.214844-1.402344l193.269531-111.582031c4.996094-2.886719 6.707031-9.277344 3.824219-14.273438-2.886719-4.996093-9.277344-6.710937-14.273438-3.824219l-193.269531 111.582032c-4.996094 2.886718-6.707031 9.273437-3.824219 14.273437 1.9375 3.351563 5.449219 5.226563 9.058594 5.226563zm0 0"/><path d="m369.964844 200.558594c1.757812 0 3.542968-.445313 5.175781-1.378906l.105469-.0625c5.011718-2.863282 6.753906-9.246094 3.890625-14.253907-2.863281-5.011719-9.25-6.753906-14.257813-3.890625l-.105468.0625c-5.011719 2.863282-6.753907 9.246094-3.890626 14.253906 1.929688 3.378907 5.457032 5.269532 9.082032 5.269532zm0 0"/></svg>