<?xml version="1.0"?>
<svg xmlns="http://www.w3.org/2000/svg" viewBox="0 0 512 512" width="512" height="512"><g id="outline">
<path style='fill:white;' d="M488,352H456V272h16a24.026,24.026,0,0,0,24-24.245,7.917,7.917,0,0,0-4.749-7.068L424,210.8V192h16a24.026,24.026,0,0,0,24-23.98,8.035,8.035,0,0,0-3.445-6.6L360,91.807V56a8,8,0,0,0-8-8h0a8,8,0,0,0-8,8v8H168V56a8,8,0,0,0-8-8h0a8,8,0,0,0-8,8V91.807L51.445,161.422A8.035,8.035,0,0,0,48,168.02,24.026,24.026,0,0,0,72,192H88v18.8L20.75,240.687A7.917,7.917,0,0,0,16,247.755,24.026,24.026,0,0,0,40,272H56v80H24a8,8,0,0,0-8,8v96a8,8,0,0,0,8,8H488a8,8,0,0,0,8-8V360A8,8,0,0,0,488,352Zm-112,0V316a12,12,0,0,1,24,0v36ZM136,272v18.809a27.036,27.036,0,0,0-24,0V272Zm40,0v18.809a27.036,27.036,0,0,0-24,0V272Zm40,0v18.809a27.036,27.036,0,0,0-24,0V272Zm64,0v24.2a39.2,39.2,0,0,0-48,0V272Zm80,0v18.809a27.036,27.036,0,0,0-24,0V272Zm40,0v18.809a27.036,27.036,0,0,0-24,0V272Zm-40,80H336V316a12,12,0,0,1,24,0Zm-80,32H232V368h48ZM152,316a12,12,0,0,1,24,0v36H152Zm40,0a12,12,0,0,1,24,0v36H192Zm88,36H264V336a8,8,0,0,0-8-8h0a8,8,0,0,0-8,8v16H232V328.947c0-11.607,7.823-22.269,19.217-24.482A24.039,24.039,0,0,1,280,328Zm16-24V316a12,12,0,0,1,24,0v36H296Zm24-37.191a27.036,27.036,0,0,0-24,0V272h24ZM112,316a12,12,0,0,1,24,0v36H112Zm37.336,52H176v16H142.669ZM136,400h40v16H129.334Zm56-32h24v80H192Zm40,32h48v16H232Zm64-32h24v80H296Zm40,32h40l6.667,16H336Zm0-16V368h26.664l6.667,16Zm80-68a12,12,0,0,1,24,0v36H416Zm24-25.191a27.036,27.036,0,0,0-24,0V272h24ZM408,208H376V192h32Zm-216,0V192h40v16Zm-16,0H152V192h24Zm72-16h16v16H248Zm32,0h40v16H280Zm56,0h24v16H336Zm8-112v8H168V80ZM64.859,171.6,162.5,104h187l97.641,67.6A7.994,7.994,0,0,1,440,176H72A7.994,7.994,0,0,1,64.859,171.6ZM136,192v16H104V192ZM33.43,252.562,97.7,224h316.61l64.265,28.562A7.988,7.988,0,0,1,472,256H40A7.988,7.988,0,0,1,33.43,252.562ZM96,272v18.809a27.036,27.036,0,0,0-24,0V272ZM72,316a12,12,0,0,1,24,0v36H72ZM32,368H132L98.668,448H32Zm84,80,6.667-16H176v16Zm116,0V432h48v16Zm104,0V432h53.333L396,448Zm144,0H413.332L380,368H480Z"/></g></svg>
