<svg id="Layer_1" enable-background="new 0 0 511.674 511.674" height="512" viewBox="0 0 511.674 511.674" width="512" xmlns="http://www.w3.org/2000/svg"><path style='fill:white;' d="m224.983 337.126c.141-4.417-3.325-8.11-7.741-8.252-4.383-.107-8.11 3.325-8.251 7.741-.458 14.366 5.981 27.56 19.141 39.214 1.522 1.349 3.415 2.011 5.301 2.011 7.351 0 10.786-9.136 5.307-13.989-9.429-8.35-14.057-17.342-13.757-26.725z"/><path style='fill:white;' d="m361.307 320.875c-4.418 0-8 3.582-8 8v8.67c0 4.418 3.582 8 8 8s8-3.582 8-8v-8.67c0-4.418-3.582-8-8-8z"/><path style='fill:white;' d="m369.307 363.7c0-4.418-3.582-8-8-8s-8 3.582-8 8c0 52.52-42.728 95.248-95.248 95.248-30.358 0-58.199-13.973-76.383-38.336-2.643-3.54-7.655-4.27-11.196-1.626-3.541 2.643-4.269 7.655-1.626 11.196 9.269 12.418 20.687 22.142 33.561 29.159h-41.982c-4.418 0-8 3.582-8 8v10.197c0 4.418 3.582 8 8 8s8-3.582 8-8v-2.197h174.788v20.333h-182.788c-4.418 0-8 3.582-8 8s3.582 8 8 8h190.788c4.418 0 8-3.582 8-8v-36.333c0-4.418-3.582-8-8-8h-39.028c34.044-18.452 57.114-53.938 57.114-95.641z"/><path style='fill:white;' d="m155.773 407.512c1.739 4.053 6.435 5.943 10.506 4.199 4.061-1.741 5.94-6.445 4.199-10.506-11.559-26.953-6.608-41.554-7.668-126.362-.252-17.056-5.515-32.864-20.473-41.332 49.425-10.207 92.219.052 99.925 50.595-7.823 5.603-17.243 14.365-24.029 24.992-2.378 3.725-1.287 8.671 2.438 11.049 3.737 2.385 8.679 1.273 11.048-2.438 6.661-10.433 16.709-18.847 23.29-22.883 2.628-1.611 4.097-4.591 3.774-7.657-5-47.492-35.175-72.447-83.321-73.016 24.689-10.784 30.264-13.212 30.748-13.443 18.146-8.388 40.081-26.197 55.344-48.413 34.044-49.558 27.823-104.752-31.075-132.01 33.132-9.414 70.143-3.091 95.112 18.611 3.335 2.898 8.388 2.546 11.286-.79 2.898-3.335 2.545-8.388-.79-11.286-50.078-43.523-140.944-35.65-183.406 35.171l-24.624 9.381c-14.971 5.703-22.886 22.128-18.02 37.392l4.739 14.863c1.241 3.891 5.21 6.217 9.217 5.409l18.439-3.752c3.388-.686 6.646 1.505 7.327 4.85.684 3.365-1.484 6.642-4.85 7.327l-15.083 3.069c-5.149 1.047-7.929 6.716-5.549 11.439 6.023 11.95 18.08 19.372 31.464 19.371 7.159 0 8.035.003 8.282-.005 13.886-.483 15.552 5.346 20.91 5.346 7.911 0 11.033-10.334 4.396-14.689-17.176-11.271-31.52-3.351-42.185-8.659 13.973-2.836 20.6-15.045 18.292-26.391-2.443-12.002-14.196-19.777-26.196-17.337l-11.403 2.32-2.558-8.023c-2.288-7.176 1.433-14.897 8.472-17.579 28.992-11.044 29.435-10.536 31.351-13.886 10.856-18.977 25.914-33.754 43.861-43.423 99.415 32.778 51.588 126.762-9.586 157.233l-96.881 42.316c-8.337 3.641-5.019 16.246 4.062 15.285 29.121-3.156 39.89 7.868 40.252 31.173v88.677c.001 15.205 3.017 29.945 8.963 43.812z"/><path style='fill:white;' d="m412.567 280.503c-30.16-44.277-45.405-97.923-46.596-163.97 4.163-24.145.613-46.941-10.284-65.972-2.195-3.835-7.083-5.163-10.917-2.968s-5.163 7.083-2.967 10.917c15.571 27.197 8.099 53.924 8.157 57.524 1.025 62.627 14.944 116.697 41.401 160.972l-28.398.001c-47.554-20.574-44.47-19.533-46.802-19.533h-30.025c16.893-43.864 24.214-91.744 21.772-142.513-.212-4.413-3.977-7.82-8.375-7.606-4.414.213-7.819 3.963-7.606 8.376 2.533 52.66-5.889 101.979-25.033 146.588-2.262 5.269 1.607 11.155 7.352 11.155h40.26l38.803 16.788v13.938c0 4.418 3.582 8 8 8s8-3.582 8-8v-11.193l36.647-.001c6.414.001 10.223-7.199 6.611-12.503z"/></svg>