<svg id="Capa_1" enable-background="new 0 0 475.293 475.293" height="512" viewBox="0 0 475.293 475.293" width="512" xmlns="http://www.w3.org/2000/svg"><path fill='white' d="m430.734 59.412h-386.175c-24.571 0-44.559 19.987-44.559 44.558v267.352c0 24.571 19.988 44.559 44.559 44.559h386.176c24.571 0 44.559-19.988 44.559-44.559v-267.352c-.001-24.571-19.988-44.558-44.56-44.558zm-401.028 44.558c0-8.195 6.658-14.853 14.853-14.853h44.559c0 32.766-26.645 59.412-59.412 59.412zm14.853 282.206c-8.195 0-14.853-6.658-14.853-14.853v-44.559c32.766 0 59.412 26.645 59.412 59.412zm401.028-14.853c0 8.195-6.658 14.853-14.853 14.853h-44.559c0-32.766 26.645-59.412 59.412-59.412zm0-74.265c-49.142 0-89.117 39.975-89.117 89.117h-237.647c0-49.142-39.975-89.117-89.117-89.117v-118.823c49.142 0 89.117-39.975 89.117-89.117h237.647c0 49.142 39.975 89.117 89.117 89.117zm0-148.529c-32.766 0-59.412-26.645-59.412-59.412h44.559c8.195 0 14.853 6.658 14.853 14.853z"/><path fill='white' d="m237.647 118.823c-49.142 0-89.117 53.305-89.117 118.823s39.975 118.823 89.117 118.823 89.117-53.305 89.117-118.823-39.975-118.823-89.117-118.823zm0 207.941c-32.201 0-59.412-40.816-59.412-89.117s27.211-89.117 59.412-89.117 59.412 40.816 59.412 89.117-27.212 89.117-59.412 89.117z"/></svg>