<svg id="Capa_1" enable-background="new 0 0 546.551 546.551" height="512" viewBox="0 0 546.551 546.551" width="512" xmlns="http://www.w3.org/2000/svg"><path fill='white' d="m351.247 307.769c-9.428 5.807-19.438 11.517-29.677 17.142l26.014 55.113c2.385 5.071 7.105 8.64 12.643 9.557.934.15 1.868.234 2.802.234 4.57 0 9.007-1.835 12.243-5.171l39.48-40.614c3.519-3.619 5.254-8.623 4.754-13.644l-6.615-64.916c-9.999 7.297-20.735 14.851-32.037 22.623l3.859 37.839-16.763 17.23c0 .001-16.703-35.392-16.703-35.393z"/><path fill='white' d="m538.912 49.006c-10.093-9.651-36.436-15.264-65.515-14.822-26.743.723-68.583 7.468-115.964 35.519-13.629 8.058-31.414 20.599-54.235 38.242l-202.881-14.658c-5.073-.394-9.993 1.462-13.498 5.039l-38.805 39.259c-3.903 3.957-5.588 9.536-4.52 14.953 1.084 5.4 4.789 9.945 9.91 12.161l116.681 50.274c-23.305 12.883-53.937 25.966-70.518 32.546l-60.942-11.111c-5.807-1.001-11.53.819-15.499 4.939l-18.42 19.057c-6.457 6.68-6.24 17.217.467 23.635l90.905 86.956c3.255 3.102 7.541 4.76 11.913 4.76 1.968 0 3.936-.329 5.854-1.017 6.157-2.216 151.716-54.721 234.912-109.688 100.864-66.62 150.949-117.321 167.413-133.979 15.517-15.709 44.095-61.598 22.742-82.065zm-47.23 58.628c-15.85 16.035-64.08 64.847-161.976 129.513-67.599 44.659-183.077 89.418-217.578 102.318l-71.018-67.934.384-.411 56.689 10.341c3.169.525 6.372.246 9.343-.869 8.19-3.152 80.795-31.514 109.173-56.149 4.37-3.807 6.472-9.536 5.571-15.199-.901-5.677-4.687-10.504-10.026-12.801l-122.554-52.801 16.064-16.264 201.564 14.557c4.237.346 8.509-.984 11.861-3.594 23.874-18.629 42.676-32.037 55.872-39.849 41.006-24.258 76.625-30.085 99.28-30.692 19.302-.623 32.231 2.544 37.787 4.251-1.817 8.105-9.676 24.699-20.436 35.583z"/><path fill='white' d="m68.321 478.232h409.913v34.159h-409.913z"/></svg>